/* XPM */
static char * tlist_processor_xpm[] = {
"48 48 17 1",
" 	c None",
".	c #A7E6F6",
"+	c #4DCDEE",
"@	c #D2F2FB",
"#	c #F6FDFE",
"$	c #6ED6F1",
"%	c #2AC3EA",
"&	c #0CC0EE",
"*	c #E8F9FD",
"=	c #06BCEA",
"-	c #1CCCF8",
";	c #04B9E7",
">	c #34D6FF",
",	c #0CC5F3",
"'	c #00B7E6",
")	c #FFFFFF",
"!	c #000000",
"        ))))))))))))))''''))))))))))))))        ",
"      ))))))))))))))))''''))))))))))))))))      ",
"    ))))))))))))))))))''''))))))))))))))))))    ",
"   )))))))))))))))))))'''')))))))))))))))))))   ",
"  ))))))))))))))))))))''''))))))))))))))))))))  ",
"  )))))))))))))))))))#''''))))))))))))))))))))  ",
" ))))))))))))))))))))@''''#)))))))))))))))))))) ",
" ))))))))@$%;;%+.*)))+''''@)))))))))))))))))))) ",
")))))))).;''''''''%+%'''''.)))))))))))))))))))))",
")))))))@='''''''''''''''''$)))))))))))))))))))))",
")))))))$''''''''''''''''''%)))))))))))))))))))))",
")))))))%'''''''''''''''''''@))))))))))))))))))))",
")))))))=''''';&,,,&='''''''$))))))))))))))))))))",
")))))))&'''';,,,,,,,,=;'''''@)))))))))))))))))))",
")))))))%''''&,,,,,,,,,,=''''%#))))))))))))))))))",
")))))))+'''',,,,,,,,,,,,&''''+))))))))))))))))))",
")))))))+'''',,,,,,,,,,,,,,='''+#))))))))))))))))",
")))))))+'''',,,,,,>>>-,,,,,='''+*)))))))))))))))",
"))))))*;''''&,,,,>>>>>>-,,,,='''&.))))))))))))))",
"))))#.%'''''=,,,,>>>>>>>>-,,,=''''+@))))))))))))",
"''''''''''''',,,,>>>>>>>>>-,,,='''';+@))))))))))",
"'''''''''''''=,,,->>>>>>>>>-,,,=''''''%$.*#)))))",
"'''''''''''''',,,,>>>>>>>>>>-,,,;'''''''''''''''",
"''''''''''''''=,,,->>>>>>>>>>,,,&'''''''''''''''",
"'''''''''''''''&,,,>>>>>>>>>>-,,,=''''''''''''''",
"''''''''''''''';,,,->>>>>>>>>>-,,,''''''''''''''",
"''''''''''''''''=,,,->>>>>>>>>-,,,='''''%@#)))))",
")))))))#*@.+=''''=,,,->>>>>>>>>,,,,'''';*)))))))",
"))))))))))))*$;'''=,,,,>>>>>>>>,,,,='''%))))))))",
"))))))))))))))@%'''=,,,,->>>>>>,,,,&'''&))))))))",
")))))))))))))))#+'''=,,,,-->>>-,,,,,''''@)))))))",
"))))))))))))))))#+'''=,,,,,,,,,,,,,,''''.)))))))",
")))))))))))))))))#%''''&,,,,,,,,,,,,''''+)))))))",
"))))))))))))))))))@;''''=,,,,,,,,,,&''''&)))))))",
")))))))))))))))))))$''''';=,,,,,,,,;'''';#))))))",
")))))))))))))))))))*='''''''=&,,,&;''''''#))))))",
"))))))))))))))))))))+'''''''''''''''''''&)))))))",
")))))))))))))))))))).'''''''''''''''''''$)))))))",
"))))))))))))))))))))@'''''''''''''''''';@)))))))",
"))))))))))))))))))))*''''''''''''''''';.))))))))",
" )))))))))))))))))))#'''''''''%++%&=%$@)))))))) ",
" ))))))))))))))))))))'''''''=.))))))))))))))))) ",
"  )))))))))))))))))))'''''''.)))))))))))))))))  ",
"  )))))))))))))))))))'''''''*)))))))))))))))))  ",
"   ))))))))))))))))))''''''')))))))))))))))))   ",
"    )))))))))))))))))'''''''))))))))))))))))    ",
"      )))))))))))))))'''''''))))))))))))))      ",
"        )))))))))))))'''''''))))))))))))        "};
